<?xml version="1.0" encoding="UTF-8" standalone="no"?>
<svg
   width="220"
   height="40"
   fill="currentColor"
   class="bi bi-basket2-fill"
   viewBox="0 0 220 40"
   version="1.1"
   id="svg1"
   sodipodi:docname="logoMercatto.svg"
   xml:space="preserve"
   inkscape:version="1.4.2 (ebf0e940, 2025-05-08)"
   xmlns:inkscape="http://www.inkscape.org/namespaces/inkscape"
   xmlns:sodipodi="http://sodipodi.sourceforge.net/DTD/sodipodi-0.dtd"
   xmlns="http://www.w3.org/2000/svg"
   xmlns:svg="http://www.w3.org/2000/svg"><defs
     id="defs1" /><sodipodi:namedview
     id="namedview1"
     pagecolor="#ffffff"
     bordercolor="#000000"
     borderopacity="0.25"
     inkscape:showpageshadow="2"
     inkscape:pageopacity="0.0"
     inkscape:pagecheckerboard="0"
     inkscape:deskcolor="#d1d1d1"
     inkscape:zoom="2.298097"
     inkscape:cx="71.580963"
     inkscape:cy="33.288412"
     inkscape:window-width="1512"
     inkscape:window-height="920"
     inkscape:window-x="0"
     inkscape:window-y="34"
     inkscape:window-maximized="1"
     inkscape:current-layer="svg1" /><text
     xml:space="preserve"
     style="font-style:normal;font-variant:normal;font-weight:bold;font-stretch:normal;font-size:29.3333px;font-family:'Al Bayan';-inkscape-font-specification:'Al Bayan Bold';text-align:start;writing-mode:lr-tb;direction:ltr;text-anchor:start;fill:#009342"
     x="46.384544"
     y="31.765411"
     id="text1"
     inkscape:label="Texto logo"><tspan
       sodipodi:role="line"
       id="tspan1"
       x="46.384544"
       y="31.765411"
       style="font-style:normal;font-variant:normal;font-weight:bold;font-stretch:normal;font-family:Futura;-inkscape-font-specification:'Futura Bold';fill:#042940;fill-opacity:1">MERCATTO</tspan></text><g
     style="fill:#005c53;fill-opacity:1"
     id="g1"
     transform="matrix(1.4641665,0,0,1.4641665,9.4707943,7.5711463)"
     inkscape:label="Icono carrito"><path
       d="m 0.5,1 a 0.5,0.5 0 0 0 0,1 h 1.11 l 0.401,1.607 1.498,7.985 A 0.5,0.5 0 0 0 4,12 h 1 a 2,2 0 1 0 0,4 2,2 0 0 0 0,-4 h 7 a 2,2 0 1 0 0,4 2,2 0 0 0 0,-4 h 1 a 0.5,0.5 0 0 0 0.491,-0.408 l 1.5,-8 A 0.5,0.5 0 0 0 14.5,3 H 2.89 L 2.485,1.379 A 0.5,0.5 0 0 0 2,1 Z M 6,14 a 1,1 0 1 1 -2,0 1,1 0 0 1 2,0 m 7,0 a 1,1 0 1 1 -2,0 1,1 0 0 1 2,0 m -1.646,-7.646 -3,3 a 0.5,0.5 0 0 1 -0.708,0 l -1.5,-1.5 A 0.5006316,0.5006316 0 1 1 6.854,7.146 L 8,8.293 10.646,5.646 a 0.5006316,0.5006316 0 0 1 0.708,0.708"
       id="path1"
       style="fill:#005c53;fill-opacity:1" /></g><circle
     style="fill:none;fill-opacity:1;stroke:#005c53;stroke-opacity:1;stroke-width:2;stroke-dasharray:none"
     id="path2"
     cx="20.451704"
     cy="20.016562"
     r="18.711134"
     inkscape:label="Círculo" /></svg>
