<?xml version="1.0" encoding="UTF-8" standalone="no"?>
<svg
   width="208"
   height="30"
   viewBox="0 0 208 30"
   fill="none"
   version="1.1"
   id="svg12"
   sodipodi:docname="logo.svg"
   inkscape:version="1.4.2 (ebf0e940, 2025-05-08)"
   xmlns:inkscape="http://www.inkscape.org/namespaces/inkscape"
   xmlns:sodipodi="http://sodipodi.sourceforge.net/DTD/sodipodi-0.dtd"
   xmlns="http://www.w3.org/2000/svg"
   xmlns:svg="http://www.w3.org/2000/svg">
  <defs
     id="defs12" />
  <sodipodi:namedview
     id="namedview12"
     pagecolor="#ffffff"
     bordercolor="#000000"
     borderopacity="0.25"
     inkscape:showpageshadow="2"
     inkscape:pageopacity="0.0"
     inkscape:pagecheckerboard="0"
     inkscape:deskcolor="#d1d1d1"
     inkscape:zoom="3.4666667"
     inkscape:cx="77.019231"
     inkscape:cy="40.528846"
     inkscape:window-width="1512"
     inkscape:window-height="920"
     inkscape:window-x="0"
     inkscape:window-y="34"
     inkscape:window-maximized="1"
     inkscape:current-layer="svg12" />
  <path
     d="M1.06214 15C1.06214 7.30491 7.30491 1.06214 15 1.06214C22.6951 1.06214 28.9379 7.30491 28.9379 15C28.9379 22.6951 22.6951 28.9379 15 28.9379C7.30491 28.9379 1.06214 22.6951 1.06214 15ZM0 15C0 23.2587 6.71965 30 15 30C23.2803 30 30 23.2803 30 15C30 6.71965 23.2803 0 15 0C6.71965 0 0 6.71965 0 15Z"
     fill="#009342"
     id="path1" />
  <path
     d="M22.5271 13.5043C23.4161 11.7702 22.7656 11.0765 23.6979 9.73261C24.3484 8.80053 24.3918 8.93059 24.5869 8.6488C24.7387 8.41036 24.6736 8.17192 24.305 7.86845C23.8931 7.58666 23.6546 7.58666 23.4594 7.86845C23.2643 8.15024 23.3727 8.15024 22.7222 9.08232C21.7899 10.4263 20.5757 10.0578 19.188 12.0303L18.1689 13.4826H22.5271V13.5043Z"
     fill="#AE2062"
     id="path2" />
  <path
     d="M23.1129 13.5043C24.2404 13.5043 24.3271 14.1979 24.9342 14.1979C25.3462 14.1979 25.4546 13.9595 25.5413 13.721C25.628 13.3959 25.6931 13.3526 25.9966 13.2658C26.1484 13.2225 26.3652 13.0708 26.3652 12.789C26.3652 12.2254 25.7148 12.2254 25.7148 11.9436C25.7148 11.7485 25.9099 11.6184 25.9099 11.38C25.9099 11.1416 25.7148 10.9248 25.3028 10.9248C24.6957 10.9248 23.8935 11.5317 23.5682 11.8135C23.5249 12.2687 23.3731 12.9841 23.0479 13.526H23.1129V13.5043Z"
     fill="#B1C81B"
     id="path3" />
  <path
     d="M6.43945 21.2428C6.43945 22.7818 7.32843 23.6705 8.86788 23.6705H21.1184C22.6578 23.6705 23.5468 22.7818 23.5468 21.2428V14.7182C23.5468 14.2413 23.3083 13.9812 22.8096 13.9812H15.8062V6.06936C15.8062 5.61415 15.6111 5.41907 15.1558 5.41907H14.8305C14.3752 5.41907 14.18 5.61415 14.18 6.06936V13.9812H7.17665C6.69964 13.9812 6.43945 14.2196 6.43945 14.7182V21.2428Z"
     fill="#FCB300"
     id="path4" />
  <path
     d="M17.5839 13.5043L18.603 12.052C18.9716 11.5317 19.4486 10.8381 20.2292 10.3179C20.3159 10.2312 20.4677 9.94936 20.4677 9.62422C20.4677 9.25572 20.1425 8.84387 19.6654 8.84387C19.015 8.84387 18.6897 9.3641 18.3211 9.3641C17.9959 9.3641 17.7574 8.95225 17.1937 8.95225C16.6299 8.95225 16.3047 9.3641 16.3047 10.1661V13.4826H17.5839V13.5043Z"
     fill="#B1C81B"
     id="path5" />
  <path
     d="M11.665 13.0491C11.665 13.2876 11.7084 13.5043 11.7084 13.5043H13.7032V11.4884C13.5731 11.4451 13.4213 11.4451 13.2912 11.4451C12.3155 11.4234 11.665 12.117 11.665 13.0491Z"
     fill="#DE462F"
     id="path6" />
  <path
     d="M8.75879 12.8106C8.75879 13.0491 8.80215 13.2875 8.88888 13.5043H11.2306C11.2306 13.5043 11.1872 13.3092 11.1872 13.0491C11.1872 12.2037 11.5558 11.7051 12.0762 11.3366C11.751 11.0115 11.2739 10.8164 10.7319 10.8164C9.6044 10.8164 8.75879 11.6618 8.75879 12.8106Z"
     fill="#DE462F"
     id="path7" />
  <path
     d="M10.9922 10.3396C11.5993 10.4263 12.1197 10.6648 12.5316 11.12C12.7701 10.9899 13.052 10.9682 13.3122 10.9682C13.5507 10.9682 13.7242 11.0116 13.7242 11.0116V9.88443C13.529 9.55929 13.0303 9.32085 12.51 9.32085C11.7077 9.2775 11.1873 9.7327 10.9922 10.3396Z"
     fill="#DE462F"
     id="path8" />
  <path
     d="M4.89941 13.6127C4.89941 13.9812 5.13792 14.2197 5.50652 14.2197C6.20035 14.2197 5.98353 13.4827 7.21942 13.4827H8.3469C8.30354 13.3526 8.26018 13.1575 8.26018 12.8757C7.9783 12.6806 7.32784 12.2688 6.634 12.2688C6.15699 12.2688 5.8968 12.4205 5.74503 12.724C5.63661 12.9191 4.89941 12.8974 4.89941 13.6127Z"
     fill="#B1C81B"
     id="path9" />
  <path
     d="M6.39551 8.47548C6.39551 8.99572 6.91588 9.12577 6.91588 9.53762C6.91588 9.73271 6.78579 9.86277 6.78579 10.1012C6.78579 10.383 7.06766 10.4264 7.24112 10.4697C8.13009 10.6648 8.58542 10.9466 8.82393 11.2501C9.14916 10.7948 9.75627 10.4047 10.6452 10.3613C10.2766 9.94947 10.2333 9.5593 10.2333 8.86566C10.2333 8.54051 10.1032 8.12866 9.75627 8.12866C9.51776 8.12866 9.51776 8.2804 9.30094 8.2804C8.97571 8.2804 8.9757 7.8252 8.52038 7.8252C8.15178 7.8252 8.15178 8.23705 7.86991 8.23705C7.58803 8.23705 7.41458 7.86855 6.98093 7.86855C6.61233 7.86855 6.39551 8.15034 6.39551 8.47548Z"
     fill="#B1C81B"
     id="path10" />
  <path
     d="M3.68555 10.5781C3.68555 11.185 4.42275 11.0333 4.42275 11.5535C4.42275 11.6402 4.33602 11.922 4.33602 12.0304C4.33602 12.3989 4.61789 12.5073 4.85639 12.5073C5.00817 12.5073 5.18163 12.4639 5.37677 12.2688C5.57191 12.0737 5.89714 11.7919 6.59098 11.7919C7.32818 11.7919 7.84855 12.1171 8.30388 12.3555C8.39061 11.9437 8.45566 11.7919 8.54239 11.6185C8.21715 11.25 7.80519 11.0549 6.91621 10.8382C6.59098 10.7515 6.30911 10.5997 6.30911 10.1445C6.30911 9.9061 6.39584 9.77604 6.39584 9.58095C6.39584 9.34251 6.2007 8.93066 5.65864 8.93066C5.24667 8.93066 5.0949 9.21246 5.00817 9.49425C4.92144 9.77604 4.85639 9.9061 4.55284 9.9061C3.92405 9.92777 3.68555 10.2529 3.68555 10.5781Z"
     fill="#009342"
     id="path11"
     style="fill:#009342;fill-opacity:1" />
  <path
     d="M198.302 12.9585H198.371L199.859 17.1799H196.848L198.302 12.9585ZM120.841 12.9585H120.91L122.398 17.1799H119.387L120.841 12.9585ZM137.42 11.4014H138.493C140.742 11.4014 141.85 13.0969 141.85 15.0346C141.85 16.9723 140.742 18.6678 138.493 18.6678H137.42V11.4014ZM155.66 15.0346C155.66 12.7855 157.287 11.0554 159.502 11.0554C161.752 11.0554 163.344 12.7509 163.344 15.0346C163.344 17.3183 161.717 19.0138 159.502 19.0138C157.287 18.9792 155.66 17.3183 155.66 15.0346ZM82.3525 10.8131H83.9793C85.1907 10.8131 85.6407 11.7128 85.6407 12.4048C85.6407 13.0969 85.2253 13.9965 83.9793 13.9965H82.3525V10.8131ZM131.259 21.5744C131.259 23.3737 132.505 24.5848 134.305 24.5848H136.624C139.912 24.5848 142.819 24.1696 145.138 22.0934C147.111 20.3287 148.253 17.8028 148.253 15.0346C148.253 12.2664 147.111 9.70588 145.138 7.97578C142.819 5.89965 139.912 5.48443 136.624 5.48443H134.305C132.505 5.48443 131.259 6.6955 131.259 8.49481V21.5744ZM76.1917 21.7474C76.1917 23.5467 77.4723 24.827 79.2721 24.827C81.0719 24.827 82.3525 23.5467 82.3525 21.7474V18.4602H82.4218L86.4713 23.4083C86.8867 23.9619 87.752 24.827 89.1018 24.827C90.7978 24.827 92.1476 23.6159 92.1476 21.8512C92.1476 20.8478 91.6631 20.1557 91.1439 19.5675L89.3787 17.5606C90.7978 16.4533 91.8361 14.6886 91.8361 12.3356C91.8361 9.39447 90.3478 7.17993 87.8558 6.14187C86.5752 5.58824 85.2253 5.48443 83.114 5.48443H79.4105C77.5415 5.48443 76.2609 6.76471 76.2609 8.59862V21.7474H76.1917ZM60.1664 21.5744C60.1664 23.3737 61.4125 24.5848 63.2123 24.5848H72.1075C73.6996 24.5848 74.8764 23.4083 74.8764 21.8166C74.8764 20.2249 73.6996 19.0484 72.1075 19.0484H66.3965V17.526H71.1037C72.6267 17.526 73.665 16.4533 73.665 14.9654C73.665 13.4775 72.6267 12.4048 71.1037 12.4048H66.3965V10.8824H71.8998C73.4919 10.8824 74.6687 9.70589 74.6687 8.11419C74.6687 6.52249 73.4919 5.34602 71.8998 5.34602H63.2123C61.4125 5.34602 60.1664 6.5571 60.1664 8.3564V21.5744ZM188.887 21.8166C188.887 23.4775 190.237 24.827 191.899 24.827C193.56 24.827 194.529 23.6851 194.771 22.8893L195.083 22.0242H201.521L201.832 22.8893C202.109 23.6851 203.078 24.827 204.705 24.827C206.366 24.827 207.716 23.4429 207.716 21.782C207.716 21.1246 207.508 20.6055 207.093 19.6713L202.559 8.80623C201.59 6.52249 200.517 5.24222 198.267 5.24222C196.017 5.24222 194.979 6.52249 194.01 8.80623L189.476 19.6713C189.164 20.5017 188.887 21.1246 188.887 21.8166ZM170.993 21.7474C170.993 23.5467 172.274 24.827 174.074 24.827C175.839 24.827 177.154 23.5467 177.154 21.7474V16.2111H177.223L181.446 22.6125C182.38 24.0311 183.315 24.827 184.872 24.827C186.707 24.827 188.022 23.5467 188.022 21.7128V8.3218C188.022 6.52249 186.741 5.24222 184.942 5.24222C183.176 5.24222 181.861 6.52249 181.861 8.3218V13.8581H181.792L177.569 7.45675C176.635 6.03806 175.7 5.24222 174.143 5.24222C172.308 5.24222 170.993 6.52249 170.993 8.3564V21.7474ZM111.461 21.8166C111.461 23.4775 112.811 24.827 114.472 24.827C116.134 24.827 117.103 23.6851 117.345 22.8893L117.656 22.0242H124.094L124.406 22.8893C124.683 23.6851 125.652 24.827 127.279 24.827C128.94 24.827 130.29 23.4429 130.29 21.782C130.29 21.1246 130.082 20.6055 129.667 19.6713L125.133 8.80623C124.163 6.52249 123.09 5.24222 120.841 5.24222C118.591 5.24222 117.553 6.52249 116.584 8.80623L112.049 19.6713C111.738 20.5017 111.461 21.1246 111.461 21.8166ZM34 21.7128C34 23.7543 35.4883 24.827 37.0804 24.827C38.7418 24.827 39.9878 23.7543 40.2647 21.6436L40.957 16.0381H41.0262L42.9298 22.2664C43.4836 24.1003 44.7988 24.827 46.2872 24.827C47.7755 24.827 49.0907 24.1003 49.6445 22.2664L51.5481 16.0381H51.6174L52.3096 21.6436C52.5865 23.7543 53.8325 24.827 55.4939 24.827C57.086 24.827 58.5743 23.7889 58.5743 21.7128C58.5743 21.5398 58.5397 21.263 58.5051 21.0554L56.4976 8.70242C56.1515 6.52249 54.767 5.24222 52.6903 5.24222C50.6828 5.24222 49.333 6.38409 48.71 8.46021L46.3218 16.1073H46.2525L43.8643 8.46021C43.2067 6.38409 41.8915 5.24222 39.884 5.24222C37.8073 5.24222 36.4228 6.52249 36.0767 8.70242L34.0692 21.0554C34.0346 21.263 34 21.5398 34 21.7128ZM149.361 15.0346C149.361 20.6747 153.791 25 159.537 25C165.282 25 169.712 20.6747 169.712 15.0346C169.712 9.39447 165.282 5.06921 159.537 5.06921C153.756 5.0346 149.361 9.39447 149.361 15.0346ZM92.9091 15.0346C92.9091 20.8478 97.1317 25 102.773 25C105.681 25 108.519 23.8927 110.076 21.8858C110.7 21.1246 111.011 20.3633 111.011 19.4637C111.011 17.699 109.627 16.4533 108 16.4533C105.577 16.4533 105.542 18.737 102.773 18.737C100.904 18.737 99.243 17.4567 99.2084 15C99.243 12.5433 100.904 11.263 102.773 11.263C105.542 11.263 105.577 13.5467 108 13.5467C109.627 13.5467 111.011 12.3356 111.011 10.5363C111.011 9.63668 110.7 8.87544 110.076 8.11419C108.519 6.10727 105.681 5 102.773 5C97.1317 5.0346 92.9091 9.22146 92.9091 15.0346Z"
     fill="#009342"
     id="path12" />
</svg>
